<svg xmlns="http://www.w3.org/2000/svg" version="1.1" xmlns:xlink="http://www.w3.org/1999/xlink" xmlns:svgjs="http://svgjs.dev/svgjs" width="1440" height="560" preserveAspectRatio="none" viewBox="0 0 1440 560"><g mask="url(&quot;#SvgjsMask1005&quot;)" fill="none"><path d="M648.15 660.89C826.44 625.71 904.26 173.33 1184.13 169.85 1464 166.37 1579.7 335.9 1720.11 337.85" stroke="rgba(194, 52, 51, 0.58)" stroke-width="2"></path><path d="M352.91 599.51C462.43 595.54 551.31 421.36 753.35 421.11 955.4 420.86 953.57 491.11 1153.8 491.11 1354.02 491.11 1452.61 421.37 1554.24 421.11" stroke="rgba(194, 52, 51, 0.58)" stroke-width="2"></path><path d="M547.8 665.54C676.1 627.73 627.4 266.77 901.9 264.48 1176.4 262.19 1430.39 387.22 1610.1 387.68" stroke="rgba(194, 52, 51, 0.58)" stroke-width="2"></path><path d="M562.88 639.77C740.22 599.87 815.12 132.78 1082.32 131.01 1349.52 129.24 1456.97 381.66 1601.76 388.61" stroke="rgba(194, 52, 51, 0.58)" stroke-width="2"></path><path d="M719.07 613.65C845.28 612.52 945.88 489.15 1206.72 482.93 1467.55 476.71 1558.55 248.57 1694.36 242.13" stroke="rgba(194, 52, 51, 0.58)" stroke-width="2"></path></g><defs><mask id="SvgjsMask1005"><rect width="1440" height="560" fill="#ffffff"></rect></mask></defs></svg>